<svg xmlns="http://www.w3.org/2000/svg" viewBox="0 0 24 24">
  <rect width="24" height="24" fill="#fff"/>
  <line x1="8" y1="0" x2="8" y2="24" stroke="#000" stroke-width="0.8"/>
  <line x1="16" y1="0" x2="16" y2="24" stroke="#000" stroke-width="0.8"/>
  <line x1="0" y1="8" x2="24" y2="8" stroke="#000" stroke-width="0.8"/>
  <line x1="0" y1="16" x2="24" y2="16" stroke="#000" stroke-width="0.8"/>
  
  <line x1="2" y1="2" x2="6" y2="6" stroke="#e63946" stroke-width="1"/>
  <line x1="6" y1="2" x2="2" y2="6" stroke="#e63946" stroke-width="1"/>
  <circle cx="12" cy="4" r="2" stroke="#1d3557" stroke-width="1" fill="none"/>
  <line x1="18" y1="2" x2="22" y2="6" stroke="#e63946" stroke-width="1"/>
  <line x1="22" y1="2" x2="18" y2="6" stroke="#e63946" stroke-width="1"/>
  
  <circle cx="4" cy="12" r="2" stroke="#1d3557" stroke-width="1" fill="none"/>
  <line x1="10" y1="10" x2="14" y2="14" stroke="#e63946" stroke-width="1"/>
  <line x1="14" y1="10" x2="10" y2="14" stroke="#e63946" stroke-width="1"/>
  <circle cx="20" cy="12" r="2" stroke="#1d3557" stroke-width="1" fill="none"/>
  
  <line x1="2" y1="18" x2="6" y2="22" stroke="#e63946" stroke-width="1"/>
  <line x1="6" y1="18" x2="2" y2="22" stroke="#e63946" stroke-width="1"/>
  <circle cx="12" cy="20" r="2" stroke="#1d3557" stroke-width="1" fill="none"/>
  <line x1="18" y1="18" x2="22" y2="22" stroke="#e63946" stroke-width="1"/>
  <line x1="22" y1="18" x2="18" y2="22" stroke="#e63946" stroke-width="1"/>
</svg>
